<?xml version="1.0" standalone="no"?>
<!DOCTYPE svg PUBLIC "-//W3C//DTD SVG 20010904//EN"
 "http://www.w3.org/TR/2001/REC-SVG-20010904/DTD/svg10.dtd">
<svg version="1.0" xmlns="http://www.w3.org/2000/svg"
 width="311.000000pt" height="311.000000pt" viewBox="0 0 311.000000 311.000000"
 preserveAspectRatio="xMidYMid meet">
<metadata>
Created by potrace 1.14, written by Peter Selinger 2001-2017
</metadata>
<g transform="translate(0.000000,311.000000) scale(0.100000,-0.100000)"
fill="#000000" stroke="none">
<path d="M0 1555 l0 -1555 1555 0 1555 0 0 1555 0 1555 -1555 0 -1555 0 0
-1555z m1735 1276 c252 -31 481 -127 671 -282 165 -135 318 -355 393 -564 57
-156 73 -251 74 -430 0 -213 -31 -355 -118 -534 -33 -67 -112 -201 -124 -211
-4 -3 -30 -35 -59 -72 -119 -151 -338 -306 -527 -373 -27 -9 -59 -21 -70 -25
-55 -22 -129 -36 -315 -60 -86 -11 -280 9 -372 39 -90 29 -187 63 -218 77
-200 86 -408 251 -539 425 -101 133 -207 369 -233 516 -17 99 -21 283 -8 373
11 73 21 114 57 245 3 11 9 25 13 30 3 6 14 31 24 58 75 203 261 442 439 564
34 23 67 46 72 51 24 19 156 80 225 104 103 36 179 54 285 67 175 22 162 22
330 2z"/>
<path d="M1375 2733 c-30 -3 -52 -9 -160 -38 -66 -18 -72 -21 -160 -60 -113
-50 -268 -161 -335 -239 -51 -60 -130 -161 -130 -167 0 -3 17 -14 37 -25 21
-10 50 -27 66 -37 26 -18 28 -18 55 0 45 30 66 43 82 50 8 4 71 46 140 95 69
48 140 97 158 110 35 25 46 33 199 146 108 79 183 146 183 162 0 10 -69 11
-135 3z"/>
<path d="M1660 2726 c0 -18 103 -102 246 -200 55 -37 144 -99 199 -137 171
-119 246 -168 317 -207 l42 -24 48 24 c35 17 48 29 48 45 0 23 -68 110 -146
189 -87 86 -247 198 -315 219 -13 4 -42 16 -64 26 -22 10 -69 25 -105 34 -36
9 -78 20 -95 25 -16 4 -63 11 -102 15 -63 6 -73 5 -73 -9z"/>
<path d="M1480 2572 c-50 -42 -455 -332 -592 -424 -49 -32 -88 -60 -88 -62 0
-5 178 -116 185 -116 3 0 41 -22 85 -50 44 -27 82 -50 85 -50 3 0 76 -44 163
-98 181 -114 221 -136 230 -127 8 8 4 898 -4 938 -3 15 -9 27 -12 27 -4 0 -27
-17 -52 -38z"/>
<path d="M1630 2408 c0 -112 -1 -218 -1 -235 0 -18 0 -40 0 -48 0 -8 0 -27 0
-42 -1 -53 -2 -298 -1 -325 1 -21 -3 -28 -18 -28 -11 0 -20 -4 -20 -10 0 -5 7
-10 15 -10 8 0 15 -9 15 -19 0 -11 5 -23 10 -26 6 -4 8 -11 5 -16 -13 -20 21
-7 81 31 35 22 66 40 69 40 11 0 583 359 590 370 2 4 -46 40 -108 80 -62 41
-182 123 -267 182 -85 60 -162 113 -170 118 -60 38 -158 110 -169 124 -7 9
-17 16 -22 16 -5 0 -9 -91 -9 -202z"/>
<path d="M523 2118 c-8 -11 -46 -91 -73 -153 -9 -19 -32 -102 -51 -175 -4 -19
-13 -80 -19 -136 -15 -136 0 -270 47 -429 16 -56 18 -60 68 -169 l36 -78 28
26 28 27 -5 537 c-4 483 -6 537 -20 549 -22 16 -27 16 -39 1z"/>
<path d="M2597 2110 c-13 -19 -15 -94 -16 -513 -1 -436 6 -607 23 -624 11 -11
35 19 64 80 16 34 33 73 36 87 4 14 11 34 16 45 9 24 34 118 50 195 14 63 8
313 -8 398 -26 127 -110 341 -139 350 -6 1 -18 -7 -26 -18z"/>
<path d="M682 1562 c2 -264 6 -483 9 -486 8 -8 90 38 339 193 113 70 249 154
303 186 55 32 104 64 110 70 7 6 21 14 31 18 17 7 14 12 -25 38 -57 38 -440
274 -499 307 -25 14 -84 51 -132 83 -48 32 -99 61 -113 65 l-26 6 3 -480z"/>
<path d="M2340 1960 c-58 -39 -122 -80 -144 -92 -57 -34 -68 -41 -103 -65 -17
-13 -33 -23 -36 -23 -6 0 -111 -66 -211 -132 -31 -21 -59 -38 -61 -38 -3 0
-24 -12 -47 -26 l-42 -27 30 -24 c16 -13 56 -40 89 -59 33 -19 98 -59 145 -89
47 -30 102 -64 122 -74 20 -11 76 -46 125 -78 98 -64 121 -79 143 -89 8 -5 39
-23 68 -42 30 -19 60 -31 69 -28 14 6 15 59 11 479 l-4 472 -25 2 c-15 1 -62
-23 -129 -67z"/>
<path d="M1585 2011 c-3 -5 -1 -12 5 -16 5 -3 10 1 10 9 0 18 -6 21 -15 7z"/>
<path d="M1592 1795 c0 -16 2 -22 5 -12 2 9 2 23 0 30 -3 6 -5 -1 -5 -18z"/>
<path d="M1300 1323 c-135 -84 -263 -163 -285 -175 -71 -37 -205 -130 -205
-142 0 -14 24 -29 133 -83 48 -24 87 -47 87 -52 0 -5 14 -14 30 -21 17 -7 30
-15 30 -19 0 -3 13 -12 29 -19 16 -7 48 -27 72 -45 23 -18 57 -41 75 -52 76
-47 207 -141 218 -157 7 -10 16 -15 20 -11 4 4 9 -3 13 -15 7 -29 27 -23 31 9
9 83 14 109 23 104 5 -4 9 18 8 52 -1 32 -3 50 -6 41 -8 -30 -23 -20 -23 15 0
38 14 65 24 48 12 -18 28 -13 18 5 -5 9 -7 25 -5 35 3 11 -3 22 -17 29 -21 11
-21 16 -19 186 1 96 5 177 9 179 12 7 -1 232 -13 241 -1 1 -112 -68 -247 -153z"/>
<path d="M1624 1465 c-4 -8 -12 -15 -20 -15 -8 0 -14 -4 -14 -8 0 -5 10 -8 22
-8 14 1 24 -6 26 -18 3 -15 0 -18 -17 -13 -16 4 -21 0 -21 -13 0 -10 7 -20 15
-24 16 -6 21 -46 6 -46 -6 0 -4 -15 4 -33 11 -26 12 -90 8 -327 -3 -162 -6
-322 -7 -355 0 -39 -6 -64 -15 -71 -14 -11 -8 -34 9 -34 4 0 48 31 97 68 80
62 590 387 648 414 14 6 25 14 24 17 -1 12 -58 50 -294 196 -132 81 -252 156
-267 166 -15 11 -29 19 -32 19 -3 0 -39 23 -79 50 -41 28 -77 50 -81 50 -4 0
-9 -7 -12 -15z"/>
<path d="M1576 1032 c-3 -5 1 -15 9 -22 16 -14 20 -3 6 19 -5 8 -11 9 -15 3z"/>
<path d="M658 932 c-27 -14 -48 -31 -48 -38 0 -30 129 -176 215 -242 53 -42
191 -132 201 -132 2 0 27 -11 56 -24 29 -13 76 -32 103 -41 28 -9 59 -21 70
-26 34 -14 175 -39 220 -39 27 0 47 6 56 16 11 14 10 19 -11 36 -86 68 -107
86 -131 111 -15 15 -34 27 -41 27 -8 0 -23 9 -33 20 -10 11 -23 19 -28 17 -5
-1 -23 10 -40 26 -16 15 -36 26 -44 23 -8 -3 -16 1 -19 9 -4 8 -12 15 -20 15
-8 0 -14 4 -14 9 0 9 -32 24 -52 26 -4 0 -13 8 -20 17 -7 10 -42 31 -76 48
-42 20 -62 35 -59 44 4 9 0 12 -11 9 -10 -2 -43 14 -74 36 -31 23 -59 41 -63
41 -4 0 -18 9 -32 20 -33 26 -48 25 -105 -8z"/>
<path d="M1574 917 c-8 -34 1 -46 14 -20 6 11 7 25 2 33 -6 10 -10 7 -16 -13z"/>
<path d="M2416 927 c-11 -7 -54 -35 -95 -62 -42 -28 -184 -118 -316 -200 -177
-110 -255 -165 -299 -210 l-59 -60 59 -3 c103 -6 276 40 416 109 83 42 215
134 277 192 59 57 151 174 151 191 0 14 -74 56 -97 55 -10 0 -27 -6 -37 -12z"/>
<path d="M1580 560 c0 -5 5 -10 10 -10 6 0 10 5 10 10 0 6 -4 10 -10 10 -5 0
-10 -4 -10 -10z"/>
</g>
</svg>
